# xmcd
#
# Track frame offsets: 
#        150
#        10007
#        22958
#        39192
#        48043
#        61946
#        76793
#        93866
#        105980
#        120207
#        133767
#        144858
#        155867
#        172643
#
# Disc length: 2532 seconds
#
# Revision: 0
# Processed by: cddbd v1.5.1PL0 Copyright (c) Steve Scherf et al.
# Submitted via: ExactAudioCopy v0.90b4
#
DISCID=8d09e20e
DTITLE=Dale Watson - For The Fans...Christmas 2004
DYEAR=2004
DGENRE=Country
TTITLE0=Heaven's Gonna Have A Honky Tonk
TTITLE1=Ain't That Lovin'
TTITLE2=Heart Of Stone
TTITLE3=Kentucky In A Spin
TTITLE4=What If...(Legend)
TTITLE5=Yellow Mama
TTITLE6=Small Town
TTITLE7=I Hate To Drink Alone
TTITLE8=Hit The Road
TTITLE9=Behind Closed Doors
TTITLE10=Oh Cher
TTITLE11=Ain't No Woman Like My Womam
TTITLE12=Lost My Heart In San Antone
TTITLE13=Long Black Veil
EXTD=
EXTT0=
EXTT1=
EXTT2=
EXTT3=
EXTT4=
EXTT5=
EXTT6=
EXTT7=
EXTT8=
EXTT9=
EXTT10=
EXTT11=
EXTT12=
EXTT13=
PLAYORDER=
